<svg xmlns="http://www.w3.org/2000/svg" width="800" height="800" fill="none" stroke="#fff" stroke-width="0" viewBox="0 0 24 24"><path fill="#fff" fill-rule="evenodd" stroke="none" d="M11.996.008C8.738.008 8.33.022 7.05.08 5.773.138 4.901.341 4.138.638A5.9 5.9 0 0 0 2.013 2.02 5.9 5.9 0 0 0 .63 4.146c-.297.763-.5 1.635-.558 2.912C.014 8.338 0 8.746 0 12.004s.014 3.667.072 4.946c.058 1.277.261 2.15.558 2.912a5.9 5.9 0 0 0 1.383 2.125 5.9 5.9 0 0 0 2.125 1.384c.763.296 1.635.499 2.912.557 1.28.058 1.688.072 4.946.072s3.667-.014 4.946-.072c1.277-.058 2.15-.261 2.912-.558a5.9 5.9 0 0 0 2.125-1.383 5.9 5.9 0 0 0 1.384-2.125c.296-.763.499-1.635.557-2.912.059-1.28.072-1.688.072-4.946s-.013-3.666-.072-4.946c-.058-1.277-.26-2.149-.557-2.912a5.9 5.9 0 0 0-1.384-2.125A5.9 5.9 0 0 0 19.854.638C19.091.34 18.22.138 16.942.08c-1.28-.058-1.688-.072-4.946-.072M7.997 12.004a3.999 3.999 0 1 0 7.998 0 3.999 3.999 0 0 0-7.998 0m-2.161 0a6.16 6.16 0 1 1 12.32 0 6.16 6.16 0 0 1-12.32 0M18.4 7.04a1.44 1.44 0 1 0 0-2.88 1.44 1.44 0 0 0 0 2.88" clip-rule="evenodd"/></svg>